<svg width="88" height="35" viewBox="0 0 88 35" fill="none" xmlns="http://www.w3.org/2000/svg">
<rect x="1" y="1" width="86" height="33" stroke="white" stroke-width="2"/>
<path d="M28.54 11.38C28.79 11.39 29.11 11.4 29.5 11.41C29.89 11.42 30.28 11.425 30.67 11.425C31.16 11.425 31.625 11.42 32.065 11.41C32.505 11.4 32.815 11.395 32.995 11.395C33.895 11.395 34.635 11.505 35.215 11.725C35.805 11.935 36.245 12.235 36.535 12.625C36.825 13.015 36.97 13.475 36.97 14.005C36.97 14.335 36.905 14.675 36.775 15.025C36.645 15.365 36.42 15.68 36.1 15.97C35.78 16.26 35.34 16.5 34.78 16.69C34.23 16.87 33.525 16.96 32.665 16.96H31.225V16.66H32.515C33.145 16.66 33.625 16.55 33.955 16.33C34.295 16.1 34.52 15.8 34.63 15.43C34.75 15.05 34.81 14.63 34.81 14.17C34.81 13.38 34.655 12.77 34.345 12.34C34.035 11.9 33.5 11.68 32.74 11.68C32.33 11.68 32.06 11.765 31.93 11.935C31.81 12.105 31.75 12.45 31.75 12.97V20.41C31.75 20.77 31.78 21.04 31.84 21.22C31.9 21.4 32.01 21.52 32.17 21.58C32.34 21.64 32.585 21.68 32.905 21.7V22C32.655 21.98 32.335 21.97 31.945 21.97C31.555 21.96 31.16 21.955 30.76 21.955C30.31 21.955 29.89 21.96 29.5 21.97C29.11 21.97 28.79 21.98 28.54 22V21.7C28.87 21.68 29.115 21.64 29.275 21.58C29.445 21.52 29.555 21.4 29.605 21.22C29.665 21.04 29.695 20.77 29.695 20.41V12.97C29.695 12.6 29.665 12.33 29.605 12.16C29.555 11.98 29.445 11.86 29.275 11.8C29.115 11.73 28.87 11.69 28.54 11.68V11.38ZM31.225 16.705C31.695 16.725 32.085 16.75 32.395 16.78C32.715 16.8 32.985 16.82 33.205 16.84C33.435 16.86 33.64 16.885 33.82 16.915C34.65 16.995 35.26 17.19 35.65 17.5C36.05 17.8 36.315 18.26 36.445 18.88L36.79 20.425C36.88 20.835 36.975 21.13 37.075 21.31C37.185 21.48 37.34 21.56 37.54 21.55C37.68 21.55 37.8 21.515 37.9 21.445C38 21.365 38.1 21.26 38.2 21.13L38.41 21.31C38.16 21.62 37.895 21.85 37.615 22C37.335 22.14 36.98 22.21 36.55 22.21C36.07 22.21 35.665 22.1 35.335 21.88C35.005 21.65 34.78 21.22 34.66 20.59L34.375 19.09C34.295 18.67 34.2 18.3 34.09 17.98C33.99 17.66 33.85 17.41 33.67 17.23C33.49 17.05 33.225 16.96 32.875 16.96H31.255L31.225 16.705ZM40.4014 10.42C40.7614 10.42 41.0564 10.52 41.2864 10.72C41.5164 10.92 41.6314 11.185 41.6314 11.515C41.6314 11.845 41.5164 12.11 41.2864 12.31C41.0564 12.51 40.7614 12.61 40.4014 12.61C40.0414 12.61 39.7464 12.51 39.5164 12.31C39.2864 12.11 39.1714 11.845 39.1714 11.515C39.1714 11.185 39.2864 10.92 39.5164 10.72C39.7464 10.52 40.0414 10.42 40.4014 10.42ZM41.4514 14.08V20.605C41.4514 21.025 41.5264 21.31 41.6764 21.46C41.8364 21.61 42.1014 21.685 42.4714 21.685V22C42.2914 21.99 42.0164 21.98 41.6464 21.97C41.2764 21.95 40.9014 21.94 40.5214 21.94C40.1514 21.94 39.7764 21.95 39.3964 21.97C39.0164 21.98 38.7314 21.99 38.5414 22V21.685C38.9114 21.685 39.1714 21.61 39.3214 21.46C39.4814 21.31 39.5614 21.025 39.5614 20.605V15.895C39.5614 15.435 39.4864 15.1 39.3364 14.89C39.1964 14.67 38.9314 14.56 38.5414 14.56V14.245C38.8614 14.275 39.1714 14.29 39.4714 14.29C39.8414 14.29 40.1914 14.275 40.5214 14.245C40.8614 14.205 41.1714 14.15 41.4514 14.08ZM47.0256 10.27C47.3556 10.27 47.6406 10.315 47.8806 10.405C48.1306 10.485 48.3456 10.595 48.5256 10.735C48.6756 10.855 48.7956 11.005 48.8856 11.185C48.9856 11.365 49.0356 11.565 49.0356 11.785C49.0356 12.055 48.9406 12.285 48.7506 12.475C48.5706 12.665 48.3406 12.76 48.0606 12.76C47.7606 12.76 47.5106 12.675 47.3106 12.505C47.1206 12.325 47.0256 12.08 47.0256 11.77C47.0256 11.53 47.0906 11.325 47.2206 11.155C47.3606 10.975 47.5556 10.85 47.8056 10.78C47.7756 10.71 47.7106 10.65 47.6106 10.6C47.5106 10.55 47.3756 10.525 47.2056 10.525C47.0056 10.525 46.8306 10.565 46.6806 10.645C46.5406 10.725 46.4256 10.835 46.3356 10.975C46.2356 11.145 46.1656 11.395 46.1256 11.725C46.0856 12.055 46.0656 12.555 46.0656 13.225V14.26H47.6706V14.56H46.0656V20.455C46.0656 20.945 46.1956 21.275 46.4556 21.445C46.7256 21.605 47.0856 21.685 47.5356 21.685V22C47.2856 21.99 46.9356 21.98 46.4856 21.97C46.0356 21.95 45.5556 21.94 45.0456 21.94C44.6856 21.94 44.3256 21.95 43.9656 21.97C43.6056 21.98 43.3356 21.99 43.1556 22V21.685C43.5256 21.685 43.7856 21.61 43.9356 21.46C44.0956 21.31 44.1756 21.025 44.1756 20.605V14.56H43.0956V14.26H44.1756C44.1756 13.67 44.2056 13.18 44.2656 12.79C44.3256 12.39 44.4156 12.05 44.5356 11.77C44.6656 11.49 44.8406 11.24 45.0606 11.02C45.2706 10.8 45.5456 10.62 45.8856 10.48C46.2356 10.34 46.6156 10.27 47.0256 10.27ZM51.1615 11.785V14.26H53.0815V14.56H51.1615V20.53C51.1615 20.89 51.2265 21.145 51.3565 21.295C51.4865 21.445 51.6715 21.52 51.9115 21.52C52.1415 21.52 52.3515 21.435 52.5415 21.265C52.7315 21.085 52.9015 20.79 53.0515 20.38L53.3215 20.5C53.1715 20.99 52.9365 21.4 52.6165 21.73C52.3065 22.05 51.8665 22.21 51.2965 22.21C50.9565 22.21 50.6665 22.165 50.4265 22.075C50.1965 21.995 49.9965 21.875 49.8265 21.715C49.6065 21.485 49.4565 21.21 49.3765 20.89C49.3065 20.57 49.2715 20.145 49.2715 19.615V14.56H47.9515V14.26H49.2715V12.175C49.6315 12.165 49.9665 12.13 50.2765 12.07C50.5865 12.01 50.8815 11.915 51.1615 11.785Z" fill="white"/>
</svg>
