<svg width="143" height="50" viewBox="0 0 143 50" fill="none" xmlns="http://www.w3.org/2000/svg">
<rect x="1" y="1" width="141" height="48" stroke="white" stroke-width="2"/>
<path d="M49.792 17.424C50.1587 17.4387 50.628 17.4533 51.2 17.468C51.772 17.4827 52.344 17.49 52.916 17.49C53.6347 17.49 54.3167 17.4827 54.962 17.468C55.6073 17.4533 56.062 17.446 56.326 17.446C57.646 17.446 58.7313 17.6073 59.582 17.93C60.4473 18.238 61.0927 18.678 61.518 19.25C61.9433 19.822 62.156 20.4967 62.156 21.274C62.156 21.758 62.0607 22.2567 61.87 22.77C61.6793 23.2687 61.3493 23.7307 60.88 24.156C60.4107 24.5813 59.7653 24.9333 58.944 25.212C58.1373 25.476 57.1033 25.608 55.842 25.608H53.73V25.168H55.622C56.546 25.168 57.25 25.0067 57.734 24.684C58.2327 24.3467 58.5627 23.9067 58.724 23.364C58.9 22.8067 58.988 22.1907 58.988 21.516C58.988 20.3573 58.7607 19.4627 58.306 18.832C57.8513 18.1867 57.0667 17.864 55.952 17.864C55.3507 17.864 54.9547 17.9887 54.764 18.238C54.588 18.4873 54.5 18.9933 54.5 19.756V30.668C54.5 31.196 54.544 31.592 54.632 31.856C54.72 32.12 54.8813 32.296 55.116 32.384C55.3653 32.472 55.7247 32.5307 56.194 32.56V33C55.8273 32.9707 55.358 32.956 54.786 32.956C54.214 32.9413 53.6347 32.934 53.048 32.934C52.388 32.934 51.772 32.9413 51.2 32.956C50.628 32.956 50.1587 32.9707 49.792 33V32.56C50.276 32.5307 50.6353 32.472 50.87 32.384C51.1193 32.296 51.2807 32.12 51.354 31.856C51.442 31.592 51.486 31.196 51.486 30.668V19.756C51.486 19.2133 51.442 18.8173 51.354 18.568C51.2807 18.304 51.1193 18.128 50.87 18.04C50.6353 17.9373 50.276 17.8787 49.792 17.864V17.424ZM53.73 25.234C54.4193 25.2633 54.9913 25.3 55.446 25.344C55.9153 25.3733 56.3113 25.4027 56.634 25.432C56.9713 25.4613 57.272 25.498 57.536 25.542C58.7533 25.6593 59.648 25.9453 60.22 26.4C60.8067 26.84 61.1953 27.5147 61.386 28.424L61.892 30.69C62.024 31.2913 62.1633 31.724 62.31 31.988C62.4713 32.2373 62.6987 32.3547 62.992 32.34C63.1973 32.34 63.3733 32.2887 63.52 32.186C63.6667 32.0687 63.8133 31.9147 63.96 31.724L64.268 31.988C63.9013 32.4427 63.5127 32.78 63.102 33C62.6913 33.2053 62.1707 33.308 61.54 33.308C60.836 33.308 60.242 33.1467 59.758 32.824C59.274 32.4867 58.944 31.856 58.768 30.932L58.35 28.732C58.2327 28.116 58.0933 27.5733 57.932 27.104C57.7853 26.6347 57.58 26.268 57.316 26.004C57.052 25.74 56.6633 25.608 56.15 25.608H53.774L53.73 25.234ZM67.1887 16.016C67.7167 16.016 68.1493 16.1627 68.4867 16.456C68.824 16.7493 68.9927 17.138 68.9927 17.622C68.9927 18.106 68.824 18.4947 68.4867 18.788C68.1493 19.0813 67.7167 19.228 67.1887 19.228C66.6607 19.228 66.228 19.0813 65.8907 18.788C65.5533 18.4947 65.3847 18.106 65.3847 17.622C65.3847 17.138 65.5533 16.7493 65.8907 16.456C66.228 16.1627 66.6607 16.016 67.1887 16.016ZM68.7287 21.384V30.954C68.7287 31.57 68.8387 31.988 69.0587 32.208C69.2933 32.428 69.682 32.538 70.2247 32.538V33C69.9607 32.9853 69.5573 32.9707 69.0147 32.956C68.472 32.9267 67.922 32.912 67.3647 32.912C66.822 32.912 66.272 32.9267 65.7147 32.956C65.1573 32.9707 64.7393 32.9853 64.4607 33V32.538C65.0033 32.538 65.3847 32.428 65.6047 32.208C65.8393 31.988 65.9567 31.57 65.9567 30.954V24.046C65.9567 23.3713 65.8467 22.88 65.6267 22.572C65.4213 22.2493 65.0327 22.088 64.4607 22.088V21.626C64.93 21.67 65.3847 21.692 65.8247 21.692C66.3673 21.692 66.8807 21.67 67.3647 21.626C67.8633 21.5673 68.318 21.4867 68.7287 21.384ZM76.9043 15.796C77.3883 15.796 77.8063 15.862 78.1583 15.994C78.5249 16.1113 78.8403 16.2727 79.1043 16.478C79.3243 16.654 79.5003 16.874 79.6323 17.138C79.7789 17.402 79.8523 17.6953 79.8523 18.018C79.8523 18.414 79.7129 18.7513 79.4343 19.03C79.1703 19.3087 78.8329 19.448 78.4223 19.448C77.9823 19.448 77.6156 19.3233 77.3223 19.074C77.0436 18.81 76.9043 18.4507 76.9043 17.996C76.9043 17.644 76.9996 17.3433 77.1903 17.094C77.3956 16.83 77.6816 16.6467 78.0483 16.544C78.0043 16.4413 77.9089 16.3533 77.7623 16.28C77.6156 16.2067 77.4176 16.17 77.1683 16.17C76.8749 16.17 76.6183 16.2287 76.3983 16.346C76.1929 16.4633 76.0243 16.6247 75.8923 16.83C75.7456 17.0793 75.6429 17.446 75.5843 17.93C75.5256 18.414 75.4963 19.1473 75.4963 20.13V21.648H77.8503V22.088H75.4963V30.734C75.4963 31.4527 75.6869 31.9367 76.0683 32.186C76.4643 32.4207 76.9923 32.538 77.6523 32.538V33C77.2856 32.9853 76.7723 32.9707 76.1123 32.956C75.4523 32.9267 74.7483 32.912 74.0003 32.912C73.4723 32.912 72.9443 32.9267 72.4163 32.956C71.8883 32.9707 71.4923 32.9853 71.2283 33V32.538C71.7709 32.538 72.1523 32.428 72.3723 32.208C72.6069 31.988 72.7243 31.57 72.7243 30.954V22.088H71.1403V21.648H72.7243C72.7243 20.7827 72.7683 20.064 72.8563 19.492C72.9443 18.9053 73.0763 18.4067 73.2523 17.996C73.4429 17.5853 73.6996 17.2187 74.0223 16.896C74.3303 16.5733 74.7336 16.3093 75.2323 16.104C75.7456 15.8987 76.3029 15.796 76.9043 15.796ZM82.9702 18.018V21.648H85.7862V22.088H82.9702V30.844C82.9702 31.372 83.0656 31.746 83.2562 31.966C83.4469 32.186 83.7182 32.296 84.0702 32.296C84.4076 32.296 84.7156 32.1713 84.9942 31.922C85.2729 31.658 85.5222 31.2253 85.7422 30.624L86.1382 30.8C85.9182 31.5187 85.5736 32.12 85.1042 32.604C84.6496 33.0733 84.0042 33.308 83.1682 33.308C82.6696 33.308 82.2442 33.242 81.8922 33.11C81.5549 32.9927 81.2616 32.8167 81.0122 32.582C80.6896 32.2447 80.4696 31.8413 80.3522 31.372C80.2496 30.9027 80.1982 30.2793 80.1982 29.502V22.088H78.2622V21.648H80.1982V18.59C80.7262 18.5753 81.2176 18.524 81.6722 18.436C82.1269 18.348 82.5596 18.2087 82.9702 18.018Z" fill="white"/>
</svg>
