<svg width="805" height="310" viewBox="0 0 805 310" fill="none" xmlns="http://www.w3.org/2000/svg">
<path d="M779.893 259.124C775.018 261.08 769.805 262.056 764.553 261.997C759.3 261.939 754.111 260.846 749.28 258.782L749.971 257.167C754.589 259.141 759.551 260.185 764.572 260.241C769.594 260.298 774.578 259.364 779.239 257.494L779.893 259.124Z" fill="white"/>
<path d="M734.912 248.358C731.451 244.407 728.802 239.812 727.116 234.837C725.43 229.862 724.741 224.604 725.087 219.363L726.839 219.478C726.508 224.49 727.167 229.517 728.779 234.274C730.391 239.03 732.924 243.423 736.233 247.201L734.912 248.358Z" fill="white"/>
<path d="M805 222C805 227.253 803.965 232.454 801.955 237.307C799.945 242.16 796.999 246.57 793.284 250.284L792.042 249.042C795.594 245.491 798.411 241.275 800.333 236.635C802.255 231.995 803.244 227.022 803.244 222H805Z" fill="white"/>
<path d="M729.766 203.065C732.589 197.811 736.551 193.255 741.363 189.731C746.174 186.207 751.713 183.803 757.573 182.696L757.899 184.421C752.296 185.48 747.001 187.778 742.401 191.148C737.8 194.517 734.012 198.873 731.313 203.896L729.766 203.065Z" fill="white"/>
<path d="M777.444 183.985C787.526 187.285 795.884 194.456 800.68 203.919L799.113 204.712C794.529 195.665 786.537 188.809 776.898 185.654L777.444 183.985Z" fill="white"/>
<path d="M761.108 223.184V224H756.5V223.184H758.342V217.322C758.342 217.146 758.348 216.968 758.36 216.788L756.83 218.102C756.778 218.146 756.726 218.174 756.674 218.186C756.622 218.194 756.574 218.194 756.53 218.186C756.486 218.178 756.444 218.162 756.404 218.138C756.368 218.114 756.34 218.088 756.32 218.06L755.984 217.598L758.546 215.384H759.416V223.184H761.108ZM762.627 223.34C762.627 223.236 762.645 223.138 762.681 223.046C762.721 222.954 762.773 222.874 762.837 222.806C762.905 222.738 762.985 222.684 763.077 222.644C763.169 222.604 763.267 222.584 763.371 222.584C763.475 222.584 763.573 222.604 763.665 222.644C763.757 222.684 763.837 222.738 763.905 222.806C763.973 222.874 764.027 222.954 764.067 223.046C764.107 223.138 764.127 223.236 764.127 223.34C764.127 223.448 764.107 223.548 764.067 223.64C764.027 223.728 763.973 223.806 763.905 223.874C763.837 223.942 763.757 223.994 763.665 224.03C763.573 224.07 763.475 224.09 763.371 224.09C763.267 224.09 763.169 224.07 763.077 224.03C762.985 223.994 762.905 223.942 762.837 223.874C762.773 223.806 762.721 223.728 762.681 223.64C762.645 223.548 762.627 223.448 762.627 223.34ZM766.969 218.648C767.417 218.552 767.829 218.504 768.205 218.504C768.653 218.504 769.049 218.57 769.393 218.702C769.737 218.834 770.023 219.016 770.251 219.248C770.483 219.48 770.657 219.754 770.773 220.07C770.893 220.386 770.953 220.73 770.953 221.102C770.953 221.558 770.873 221.97 770.713 222.338C770.557 222.706 770.339 223.022 770.059 223.286C769.783 223.546 769.457 223.746 769.081 223.886C768.705 224.026 768.299 224.096 767.863 224.096C767.611 224.096 767.369 224.07 767.137 224.018C766.905 223.97 766.687 223.904 766.483 223.82C766.283 223.736 766.097 223.64 765.925 223.532C765.753 223.424 765.601 223.31 765.469 223.19L765.799 222.734C765.871 222.63 765.965 222.578 766.081 222.578C766.161 222.578 766.251 222.61 766.351 222.674C766.451 222.734 766.573 222.802 766.717 222.878C766.861 222.954 767.029 223.024 767.221 223.088C767.417 223.148 767.649 223.178 767.917 223.178C768.217 223.178 768.487 223.13 768.727 223.034C768.967 222.938 769.173 222.802 769.345 222.626C769.517 222.446 769.649 222.232 769.741 221.984C769.833 221.736 769.879 221.458 769.879 221.15C769.879 220.882 769.839 220.64 769.759 220.424C769.683 220.208 769.565 220.024 769.405 219.872C769.249 219.72 769.053 219.602 768.817 219.518C768.581 219.434 768.305 219.392 767.989 219.392C767.773 219.392 767.547 219.41 767.311 219.446C767.079 219.482 766.841 219.54 766.597 219.62L765.925 219.422L766.615 215.402H770.689V215.87C770.689 216.022 770.641 216.148 770.545 216.248C770.453 216.344 770.293 216.392 770.065 216.392H767.365L766.969 218.648Z" fill="white"/>
<path d="M747.48 241.566C747.816 241.566 748.112 241.526 748.368 241.446C748.628 241.362 748.844 241.246 749.016 241.098C749.192 240.946 749.324 240.766 749.412 240.558C749.5 240.35 749.544 240.12 749.544 239.868C749.544 239.356 749.376 238.97 749.04 238.71C748.704 238.45 748.2 238.32 747.528 238.32H746.256V241.566H747.48ZM751.452 246H750.42C750.208 246 750.052 245.918 749.952 245.754L747.72 242.682C747.652 242.586 747.578 242.518 747.498 242.478C747.422 242.434 747.302 242.412 747.138 242.412H746.256V246H745.098V237.402H747.528C748.072 237.402 748.542 237.458 748.938 237.57C749.334 237.678 749.66 237.836 749.916 238.044C750.176 238.252 750.368 238.504 750.492 238.8C750.616 239.092 750.678 239.42 750.678 239.784C750.678 240.088 750.63 240.372 750.534 240.636C750.438 240.9 750.298 241.138 750.114 241.35C749.934 241.558 749.712 241.736 749.448 241.884C749.188 242.032 748.892 242.144 748.56 242.22C748.708 242.304 748.836 242.426 748.944 242.586L751.452 246ZM761.207 242.808L759.857 239.31C759.817 239.206 759.775 239.086 759.731 238.95C759.687 238.81 759.645 238.662 759.605 238.506C759.521 238.83 759.435 239.1 759.347 239.316L757.997 242.808H761.207ZM763.631 246H762.731C762.627 246 762.543 245.974 762.479 245.922C762.415 245.87 762.367 245.804 762.335 245.724L761.531 243.648H757.673L756.869 245.724C756.845 245.796 756.799 245.86 756.731 245.916C756.663 245.972 756.579 246 756.479 246H755.579L759.017 237.402H760.193L763.631 246ZM773.753 238.38H770.969V246H769.811V238.38H767.021V237.402H773.753V238.38ZM784.353 245.052L784.347 246H779.049V237.402H784.347V238.35H780.213V241.206H783.561V242.118H780.213V245.052H784.353Z" fill="white"/>
<path d="M770.302 199.172L766.583 198.632L764.921 195.261C764.875 195.169 764.8 195.094 764.708 195.049C764.477 194.935 764.195 195.03 764.08 195.261L762.417 198.632L758.698 199.172C758.595 199.187 758.502 199.235 758.43 199.309C758.343 199.398 758.295 199.518 758.297 199.642C758.299 199.767 758.35 199.885 758.439 199.972L761.13 202.596L760.494 206.3C760.479 206.386 760.488 206.475 760.521 206.556C760.554 206.637 760.609 206.707 760.68 206.759C760.751 206.81 760.834 206.841 760.922 206.847C761.009 206.853 761.096 206.835 761.174 206.794L764.5 205.045L767.827 206.794C767.918 206.842 768.023 206.858 768.124 206.841C768.379 206.797 768.55 206.555 768.507 206.3L767.871 202.596L770.562 199.972C770.635 199.9 770.683 199.807 770.698 199.704C770.737 199.448 770.559 199.21 770.302 199.172Z" fill="white"/>
<path d="M765 179.298C764.354 170.363 759.297 160.891 757.24 152.357C752.411 132.321 746.045 113.114 737.434 95.4716C711.442 42.2165 665.15 -0.879001 617.403 1.06317C603.603 1.62452 590.619 4.03882 577.303 8.64286C559.135 14.9245 542.295 36.5357 528.846 53.4456C510.706 76.2521 492.914 106.664 469.97 120.012C449.645 131.835 424.594 114.473 408.923 95.3215C391.624 74.1782 376.175 49.8282 357.482 30.8566C350.903 24.18 343.969 18.0468 336.753 12.7704C334.775 11.3236 328.516 11.3781 326.032 12.7704C317.699 17.4427 314.454 29.032 310.055 39.1117C291.482 81.6792 277.085 127.295 256.118 167.891C239.735 199.612 222.698 232.661 199.792 255.846C159.912 296.213 106.181 302.933 58.4902 306.577C43.2045 307.745 28.1215 309.193 12.8005 308.979C8.94721 308.925 3.43192 308.564 0 308.564" stroke="white" stroke-width="2" stroke-dasharray="30 25"/>
</svg>
