<svg width="604" height="190" viewBox="0 0 604 190" fill="none" xmlns="http://www.w3.org/2000/svg">
<path d="M582.032 183.483C577.766 185.195 573.205 186.049 568.609 185.998C564.013 185.946 559.472 184.99 555.245 183.184L555.849 181.771C559.89 183.498 564.232 184.412 568.626 184.461C573.02 184.51 577.381 183.694 581.459 182.057L582.032 183.483Z" fill="white"/>
<path d="M542.673 174.063C539.645 170.606 537.327 166.586 535.851 162.233C534.376 157.88 533.773 153.279 534.076 148.692L535.609 148.794C535.32 153.178 535.896 157.578 537.307 161.74C538.717 165.902 540.933 169.745 543.829 173.05L542.673 174.063Z" fill="white"/>
<path d="M604 151C604 155.596 603.095 160.148 601.336 164.394C599.577 168.64 596.999 172.499 593.749 175.749L592.662 174.662C595.77 171.555 598.234 167.866 599.916 163.806C601.598 159.746 602.463 155.394 602.463 151H604Z" fill="white"/>
<path d="M538.17 134.431C540.64 129.835 544.108 125.849 548.317 122.765C552.527 119.681 557.374 117.578 562.501 116.609L562.787 118.119C557.884 119.045 553.251 121.056 549.225 124.004C545.2 126.953 541.886 130.764 539.524 135.159L538.17 134.431Z" fill="white"/>
<path d="M579.889 117.737C588.71 120.625 596.024 126.899 600.22 135.179L598.849 135.873C594.837 127.957 587.845 121.958 579.41 119.197L579.889 117.737Z" fill="white"/>
<path d="M565.108 150.184V151H560.5V150.184H562.342V144.322C562.342 144.146 562.348 143.968 562.36 143.788L560.83 145.102C560.778 145.146 560.726 145.174 560.674 145.186C560.622 145.194 560.574 145.194 560.53 145.186C560.486 145.178 560.444 145.162 560.404 145.138C560.368 145.114 560.34 145.088 560.32 145.06L559.984 144.598L562.546 142.384H563.416V150.184H565.108ZM566.627 150.34C566.627 150.236 566.645 150.138 566.681 150.046C566.721 149.954 566.773 149.874 566.837 149.806C566.905 149.738 566.985 149.684 567.077 149.644C567.169 149.604 567.267 149.584 567.371 149.584C567.475 149.584 567.573 149.604 567.665 149.644C567.757 149.684 567.837 149.738 567.905 149.806C567.973 149.874 568.027 149.954 568.067 150.046C568.107 150.138 568.127 150.236 568.127 150.34C568.127 150.448 568.107 150.548 568.067 150.64C568.027 150.728 567.973 150.806 567.905 150.874C567.837 150.942 567.757 150.994 567.665 151.03C567.573 151.07 567.475 151.09 567.371 151.09C567.267 151.09 567.169 151.07 567.077 151.03C566.985 150.994 566.905 150.942 566.837 150.874C566.773 150.806 566.721 150.728 566.681 150.64C566.645 150.548 566.627 150.448 566.627 150.34ZM570.969 145.648C571.417 145.552 571.829 145.504 572.205 145.504C572.653 145.504 573.049 145.57 573.393 145.702C573.737 145.834 574.023 146.016 574.251 146.248C574.483 146.48 574.657 146.754 574.773 147.07C574.893 147.386 574.953 147.73 574.953 148.102C574.953 148.558 574.873 148.97 574.713 149.338C574.557 149.706 574.339 150.022 574.059 150.286C573.783 150.546 573.457 150.746 573.081 150.886C572.705 151.026 572.299 151.096 571.863 151.096C571.611 151.096 571.369 151.07 571.137 151.018C570.905 150.97 570.687 150.904 570.483 150.82C570.283 150.736 570.097 150.64 569.925 150.532C569.753 150.424 569.601 150.31 569.469 150.19L569.799 149.734C569.871 149.63 569.965 149.578 570.081 149.578C570.161 149.578 570.251 149.61 570.351 149.674C570.451 149.734 570.573 149.802 570.717 149.878C570.861 149.954 571.029 150.024 571.221 150.088C571.417 150.148 571.649 150.178 571.917 150.178C572.217 150.178 572.487 150.13 572.727 150.034C572.967 149.938 573.173 149.802 573.345 149.626C573.517 149.446 573.649 149.232 573.741 148.984C573.833 148.736 573.879 148.458 573.879 148.15C573.879 147.882 573.839 147.64 573.759 147.424C573.683 147.208 573.565 147.024 573.405 146.872C573.249 146.72 573.053 146.602 572.817 146.518C572.581 146.434 572.305 146.392 571.989 146.392C571.773 146.392 571.547 146.41 571.311 146.446C571.079 146.482 570.841 146.54 570.597 146.62L569.925 146.422L570.615 142.402H574.689V142.87C574.689 143.022 574.641 143.148 574.545 143.248C574.453 143.344 574.293 143.392 574.065 143.392H571.365L570.969 145.648Z" fill="white"/>
<path d="M551.48 168.566C551.816 168.566 552.112 168.526 552.368 168.446C552.628 168.362 552.844 168.246 553.016 168.098C553.192 167.946 553.324 167.766 553.412 167.558C553.5 167.35 553.544 167.12 553.544 166.868C553.544 166.356 553.376 165.97 553.04 165.71C552.704 165.45 552.2 165.32 551.528 165.32H550.256V168.566H551.48ZM555.452 173H554.42C554.208 173 554.052 172.918 553.952 172.754L551.72 169.682C551.652 169.586 551.578 169.518 551.498 169.478C551.422 169.434 551.302 169.412 551.138 169.412H550.256V173H549.098V164.402H551.528C552.072 164.402 552.542 164.458 552.938 164.57C553.334 164.678 553.66 164.836 553.916 165.044C554.176 165.252 554.368 165.504 554.492 165.8C554.616 166.092 554.678 166.42 554.678 166.784C554.678 167.088 554.63 167.372 554.534 167.636C554.438 167.9 554.298 168.138 554.114 168.35C553.934 168.558 553.712 168.736 553.448 168.884C553.188 169.032 552.892 169.144 552.56 169.22C552.708 169.304 552.836 169.426 552.944 169.586L555.452 173ZM565.207 169.808L563.857 166.31C563.817 166.206 563.775 166.086 563.731 165.95C563.687 165.81 563.645 165.662 563.605 165.506C563.521 165.83 563.435 166.1 563.347 166.316L561.997 169.808H565.207ZM567.631 173H566.731C566.627 173 566.543 172.974 566.479 172.922C566.415 172.87 566.367 172.804 566.335 172.724L565.531 170.648H561.673L560.869 172.724C560.845 172.796 560.799 172.86 560.731 172.916C560.663 172.972 560.579 173 560.479 173H559.579L563.017 164.402H564.193L567.631 173ZM577.753 165.38H574.969V173H573.811V165.38H571.021V164.402H577.753V165.38ZM588.353 172.052L588.347 173H583.049V164.402H588.347V165.35H584.213V168.206H587.561V169.118H584.213V172.052H588.353Z" fill="white"/>
<path d="M574.302 126.172L570.583 125.632L568.92 122.261C568.875 122.169 568.8 122.094 568.708 122.049C568.476 121.935 568.195 122.03 568.08 122.261L566.417 125.632L562.698 126.172C562.595 126.187 562.501 126.235 562.43 126.309C562.343 126.398 562.295 126.518 562.297 126.642C562.298 126.767 562.349 126.885 562.438 126.972L565.129 129.596L564.494 133.3C564.479 133.386 564.488 133.475 564.521 133.556C564.554 133.637 564.609 133.707 564.68 133.759C564.75 133.81 564.834 133.841 564.921 133.847C565.009 133.853 565.096 133.835 565.173 133.794L568.5 132.045L571.827 133.794C571.917 133.842 572.023 133.858 572.124 133.841C572.379 133.797 572.55 133.555 572.506 133.3L571.871 129.596L574.561 126.972C574.635 126.9 574.683 126.807 574.698 126.704C574.737 126.448 574.559 126.21 574.302 126.172Z" fill="white"/>
<path d="M569 109.832C568.519 104.377 564.758 98.5959 563.228 93.3866C559.637 81.157 554.901 69.4332 548.497 58.6645C529.164 26.1581 494.733 -0.146923 459.219 1.03856C448.955 1.3812 439.297 2.85486 429.393 5.66512C415.879 9.49938 403.354 22.6906 393.35 33.0122C379.858 46.9331 366.625 65.4963 349.559 73.6436C334.442 80.8605 315.809 70.263 304.154 58.5729C291.286 45.6672 279.795 30.8042 265.892 19.2242C260.999 15.1488 255.841 11.4052 250.474 8.18454C249.002 7.30143 244.347 7.3347 242.5 8.18454C236.302 11.0364 233.888 18.1105 230.616 24.263C216.802 50.2458 206.093 78.0891 190.498 102.869C178.313 122.231 165.64 142.404 148.604 156.555C118.941 181.195 78.9761 185.297 43.5045 187.521C32.1351 188.234 20.9165 189.118 9.52086 188.987C6.65485 188.954 2.55263 188.734 0 188.734" stroke="white" stroke-width="2" stroke-dasharray="30 25"/>
</svg>
