<svg width="1160" height="327" viewBox="0 0 1160 327" fill="none" xmlns="http://www.w3.org/2000/svg">
<path d="M1131.75 278.764C1126.27 280.965 1120.41 282.063 1114.5 281.997C1108.59 281.931 1102.75 280.702 1097.32 278.379L1098.09 276.563C1103.29 278.783 1108.87 279.958 1114.52 280.022C1120.17 280.085 1125.78 279.035 1131.02 276.931L1131.75 278.764Z" fill="white"/>
<path d="M1081.15 266.653C1077.26 262.207 1074.28 257.039 1072.38 251.442C1070.48 245.845 1069.71 239.93 1070.1 234.033L1072.07 234.163C1071.7 239.801 1072.44 245.457 1074.25 250.808C1076.06 256.159 1078.91 261.101 1082.64 265.351L1081.15 266.653Z" fill="white"/>
<path d="M1160 237C1160 242.909 1158.84 248.761 1156.57 254.221C1154.31 259.68 1151 264.641 1146.82 268.82L1145.42 267.423C1149.42 263.428 1152.59 258.685 1154.75 253.465C1156.91 248.245 1158.02 242.65 1158.02 237H1160Z" fill="white"/>
<path d="M1075.36 215.698C1078.54 209.787 1083 204.662 1088.41 200.698C1093.82 196.733 1100.05 194.028 1106.64 192.783L1107.01 194.724C1100.71 195.915 1094.75 198.501 1089.58 202.291C1084.4 206.082 1080.14 210.982 1077.1 216.633L1075.36 215.698Z" fill="white"/>
<path d="M1129 194.233C1140.34 197.946 1149.75 206.013 1155.14 216.658L1153.38 217.551C1148.22 207.373 1139.23 199.661 1128.38 196.111L1129 194.233Z" fill="white"/>
<path d="M1109.64 235.98V237H1103.88V235.98H1106.18V228.652C1106.18 228.432 1106.19 228.21 1106.2 227.985L1104.29 229.627C1104.22 229.682 1104.16 229.717 1104.09 229.732C1104.03 229.742 1103.97 229.742 1103.91 229.732C1103.86 229.722 1103.81 229.702 1103.76 229.672C1103.71 229.642 1103.68 229.61 1103.65 229.575L1103.23 228.997L1106.43 226.23H1107.52V235.98H1109.64ZM1111.53 236.175C1111.53 236.045 1111.56 235.922 1111.6 235.807C1111.65 235.692 1111.72 235.592 1111.8 235.507C1111.88 235.422 1111.98 235.355 1112.1 235.305C1112.21 235.255 1112.33 235.23 1112.46 235.23C1112.59 235.23 1112.72 235.255 1112.83 235.305C1112.95 235.355 1113.05 235.422 1113.13 235.507C1113.22 235.592 1113.28 235.692 1113.33 235.807C1113.38 235.922 1113.41 236.045 1113.41 236.175C1113.41 236.31 1113.38 236.435 1113.33 236.55C1113.28 236.66 1113.22 236.757 1113.13 236.842C1113.05 236.927 1112.95 236.992 1112.83 237.038C1112.72 237.088 1112.59 237.113 1112.46 237.113C1112.33 237.113 1112.21 237.088 1112.1 237.038C1111.98 236.992 1111.88 236.927 1111.8 236.842C1111.72 236.757 1111.65 236.66 1111.6 236.55C1111.56 236.435 1111.53 236.31 1111.53 236.175ZM1116.96 230.31C1117.52 230.19 1118.04 230.13 1118.51 230.13C1119.07 230.13 1119.56 230.212 1119.99 230.377C1120.42 230.542 1120.78 230.77 1121.06 231.06C1121.35 231.35 1121.57 231.692 1121.72 232.087C1121.87 232.482 1121.94 232.912 1121.94 233.377C1121.94 233.947 1121.84 234.462 1121.64 234.922C1121.45 235.382 1121.17 235.777 1120.82 236.107C1120.48 236.432 1120.07 236.682 1119.6 236.857C1119.13 237.033 1118.62 237.12 1118.08 237.12C1117.76 237.12 1117.46 237.088 1117.17 237.023C1116.88 236.962 1116.61 236.88 1116.35 236.775C1116.1 236.67 1115.87 236.55 1115.66 236.415C1115.44 236.28 1115.25 236.137 1115.09 235.987L1115.5 235.417C1115.59 235.287 1115.71 235.222 1115.85 235.222C1115.95 235.222 1116.06 235.262 1116.19 235.342C1116.31 235.417 1116.47 235.502 1116.65 235.597C1116.83 235.692 1117.04 235.78 1117.28 235.86C1117.52 235.935 1117.81 235.972 1118.15 235.972C1118.52 235.972 1118.86 235.912 1119.16 235.792C1119.46 235.672 1119.72 235.502 1119.93 235.282C1120.15 235.057 1120.31 234.79 1120.43 234.48C1120.54 234.17 1120.6 233.822 1120.6 233.437C1120.6 233.102 1120.55 232.8 1120.45 232.53C1120.35 232.26 1120.21 232.03 1120.01 231.84C1119.81 231.65 1119.57 231.502 1119.27 231.397C1118.98 231.292 1118.63 231.24 1118.24 231.24C1117.97 231.24 1117.68 231.262 1117.39 231.307C1117.1 231.352 1116.8 231.425 1116.5 231.525L1115.66 231.277L1116.52 226.252H1121.61V226.837C1121.61 227.027 1121.55 227.185 1121.43 227.31C1121.32 227.43 1121.12 227.49 1120.83 227.49H1117.46L1116.96 230.31Z" fill="white"/>
<path d="M1092.35 253.457C1092.77 253.457 1093.14 253.407 1093.46 253.307C1093.79 253.202 1094.06 253.057 1094.27 252.872C1094.49 252.682 1094.66 252.457 1094.77 252.197C1094.88 251.937 1094.93 251.65 1094.93 251.335C1094.93 250.695 1094.72 250.212 1094.3 249.887C1093.88 249.562 1093.25 249.4 1092.41 249.4H1090.82V253.457H1092.35ZM1097.32 259H1096.03C1095.76 259 1095.57 258.897 1095.44 258.692L1092.65 254.852C1092.57 254.732 1092.47 254.647 1092.37 254.597C1092.28 254.542 1092.13 254.515 1091.92 254.515H1090.82V259H1089.37V248.252H1092.41C1093.09 248.252 1093.68 248.322 1094.17 248.462C1094.67 248.597 1095.08 248.795 1095.4 249.055C1095.72 249.315 1095.96 249.63 1096.12 250C1096.27 250.365 1096.35 250.775 1096.35 251.23C1096.35 251.61 1096.29 251.965 1096.17 252.295C1096.05 252.625 1095.87 252.922 1095.64 253.187C1095.42 253.447 1095.14 253.67 1094.81 253.855C1094.49 254.04 1094.12 254.18 1093.7 254.275C1093.89 254.38 1094.05 254.532 1094.18 254.732L1097.32 259ZM1109.51 255.01L1107.82 250.637C1107.77 250.507 1107.72 250.357 1107.66 250.187C1107.61 250.012 1107.56 249.827 1107.51 249.632C1107.4 250.037 1107.29 250.375 1107.18 250.645L1105.5 255.01H1109.51ZM1112.54 259H1111.41C1111.28 259 1111.18 258.967 1111.1 258.902C1111.02 258.837 1110.96 258.755 1110.92 258.655L1109.91 256.06H1105.09L1104.09 258.655C1104.06 258.745 1104 258.825 1103.91 258.895C1103.83 258.965 1103.72 259 1103.6 259H1102.47L1106.77 248.252H1108.24L1112.54 259ZM1125.19 249.475H1121.71V259H1120.26V249.475H1116.78V248.252H1125.19V249.475ZM1138.44 257.815L1138.43 259H1131.81V248.252H1138.43V249.437H1133.27V253.007H1137.45V254.147H1133.27V257.815H1138.44Z" fill="white"/>
<path d="M1121.3 209.172L1117.58 208.632L1115.92 205.261C1115.88 205.169 1115.8 205.094 1115.71 205.049C1115.48 204.935 1115.2 205.03 1115.08 205.261L1113.42 208.632L1109.7 209.172C1109.6 209.187 1109.5 209.235 1109.43 209.309C1109.34 209.398 1109.3 209.518 1109.3 209.642C1109.3 209.767 1109.35 209.885 1109.44 209.972L1112.13 212.596L1111.49 216.3C1111.48 216.386 1111.49 216.475 1111.52 216.556C1111.55 216.637 1111.61 216.707 1111.68 216.759C1111.75 216.81 1111.83 216.841 1111.92 216.847C1112.01 216.853 1112.1 216.835 1112.17 216.794L1115.5 215.045L1118.83 216.794C1118.92 216.842 1119.02 216.858 1119.12 216.841C1119.38 216.797 1119.55 216.555 1119.51 216.3L1118.87 212.596L1121.56 209.972C1121.63 209.9 1121.68 209.807 1121.7 209.704C1121.74 209.448 1121.56 209.21 1121.3 209.172Z" fill="#FCECCB"/>
<path d="M1114.54 188.827C1113.6 179.413 1106.23 169.436 1103.23 160.445C1096.2 139.339 1086.92 119.105 1074.38 100.52C1036.51 44.4192 969.064 -0.979415 899.502 1.06654C879.396 1.65789 860.479 4.20122 841.079 9.0513C814.609 15.6686 790.076 38.4348 770.481 56.2483C744.053 80.2736 718.132 112.311 684.704 126.372C655.093 138.827 618.595 120.538 595.765 100.362C570.561 78.0889 548.053 52.4376 520.819 32.4522C511.235 25.4187 501.132 18.9578 490.619 13.3994C487.737 11.8753 478.618 11.9327 475 13.3994C462.859 18.3214 458.131 30.5301 451.723 41.1484C424.663 85.9907 403.688 134.044 373.141 176.81C349.272 210.226 324.45 245.041 291.079 269.465C232.977 311.989 154.696 319.069 85.2151 322.907C62.9452 324.138 40.9705 325.663 18.6491 325.437C13.0353 325.381 5 325 0 325" stroke="#FCECCB" stroke-width="2" stroke-dasharray="30 25"/>
</svg>
